<?xml version="1.0" encoding="UTF-8" standalone="no"?>
<svg width="37px" height="34px" viewBox="0 0 37 34" version="1.1" xmlns="http://www.w3.org/2000/svg" xmlns:xlink="http://www.w3.org/1999/xlink">
    <!-- Generator: Sketch 42 (36781) - http://www.bohemiancoding.com/sketch -->
    <title>Fill 18</title>
    <desc>Created with Sketch.</desc>
    <defs></defs>
    <g id="Page-1" stroke="none" stroke-width="1" fill="none" fill-rule="evenodd">
        <g id="1-Icons" transform="translate(-832.000000, -168.000000)" fill="#231F1F">
            <g id="Icons" transform="translate(112.000000, 84.500000)">
                <path d="M729.443,85.121 L729.443,91.121 C729.443,91.541 729.298,91.896 729.009,92.186 C728.718,92.476 728.363,92.621 727.943,92.621 L721.943,92.621 C721.523,92.621 721.168,92.476 720.878,92.186 C720.588,91.896 720.443,91.541 720.443,91.121 L720.443,85.121 C720.443,84.701 720.588,84.346 720.878,84.056 C721.168,83.767 721.523,83.621 721.943,83.621 L727.943,83.621 C728.363,83.621 728.718,83.767 729.009,84.056 C729.298,84.346 729.443,84.701 729.443,85.121 C729.443,85.121 729.443,84.701 729.443,85.121 L729.443,85.121 L729.443,85.121 Z M729.443,103.121 L729.443,97.121 C729.443,96.701 729.298,96.346 729.009,96.056 C728.718,95.767 728.363,95.621 727.943,95.621 L721.943,95.621 C721.523,95.621 721.168,95.767 720.878,96.056 C720.588,96.346 720.443,96.701 720.443,97.121 L720.443,103.121 C720.443,103.541 720.588,103.896 720.878,104.186 C721.168,104.476 721.523,104.621 721.943,104.621 L727.943,104.621 C728.363,104.621 728.718,104.476 729.009,104.186 C729.298,103.896 729.443,103.541 729.443,103.121 C729.443,103.121 729.443,103.541 729.443,103.121 L729.443,103.121 L729.443,103.121 Z M729.443,109.121 L729.443,115.121 C729.443,115.541 729.298,115.896 729.009,116.186 C728.718,116.476 728.363,116.621 727.943,116.621 L721.943,116.621 C721.523,116.621 721.168,116.476 720.878,116.186 C720.588,115.896 720.443,115.541 720.443,115.121 L720.443,109.121 C720.443,108.701 720.588,108.346 720.878,108.056 C721.168,107.767 721.523,107.621 721.943,107.621 L727.943,107.621 C728.363,107.621 728.718,107.767 729.009,108.056 C729.298,108.346 729.443,108.701 729.443,109.121 C729.443,109.121 729.443,108.701 729.443,109.121 L729.443,109.121 L729.443,109.121 Z M756.443,85.121 L756.443,91.121 C756.443,91.541 756.298,91.896 756.009,92.186 C755.718,92.476 755.363,92.621 754.943,92.621 L733.943,92.621 C733.523,92.621 733.168,92.476 732.878,92.186 C732.588,91.896 732.443,91.541 732.443,91.121 L732.443,85.121 C732.443,84.701 732.588,84.346 732.878,84.056 C733.168,83.767 733.523,83.621 733.943,83.621 L754.943,83.621 C755.363,83.621 755.718,83.767 756.009,84.056 C756.298,84.346 756.443,84.701 756.443,85.121 C756.443,85.121 756.443,84.701 756.443,85.121 L756.443,85.121 L756.443,85.121 Z M756.443,97.121 L756.443,103.121 C756.443,103.541 756.298,103.896 756.009,104.186 C755.718,104.476 755.363,104.621 754.943,104.621 L733.943,104.621 C733.523,104.621 733.168,104.476 732.878,104.186 C732.588,103.896 732.443,103.541 732.443,103.121 L732.443,97.121 C732.443,96.701 732.588,96.346 732.878,96.056 C733.168,95.767 733.523,95.621 733.943,95.621 L754.943,95.621 C755.363,95.621 755.718,95.767 756.009,96.056 C756.298,96.346 756.443,96.701 756.443,97.121 C756.443,97.121 756.443,96.701 756.443,97.121 L756.443,97.121 L756.443,97.121 Z M756.443,109.121 L756.443,115.121 C756.443,115.541 756.298,115.896 756.009,116.186 C755.718,116.476 755.363,116.621 754.943,116.621 L733.943,116.621 C733.523,116.621 733.168,116.476 732.878,116.186 C732.588,115.896 732.443,115.541 732.443,115.121 L732.443,109.121 C732.443,108.701 732.588,108.346 732.878,108.056 C733.168,107.767 733.523,107.621 733.943,107.621 L754.943,107.621 C755.363,107.621 755.718,107.767 756.009,108.056 C756.298,108.346 756.443,108.701 756.443,109.121 L756.443,109.121 Z" id="Fill-18"></path>
            </g>
        </g>
    </g>
</svg>