<?xml version="1.0" encoding="UTF-8" standalone="no"?>
<svg width="34px" height="34px" viewBox="0 0 34 34" version="1.1" xmlns="http://www.w3.org/2000/svg" xmlns:xlink="http://www.w3.org/1999/xlink">
    <!-- Generator: Sketch 42 (36781) - http://www.bohemiancoding.com/sketch -->
    <title>Fill 16</title>
    <desc>Created with Sketch.</desc>
    <defs></defs>
    <g id="Page-1" stroke="none" stroke-width="1" fill="none" fill-rule="evenodd">
        <g id="1-Icons" transform="translate(-688.000000, -168.000000)" fill="#231F1F">
            <g id="Icons" transform="translate(112.000000, 84.500000)">
                <path d="M591.443,85.121 L591.443,97.121 C591.443,97.541 591.298,97.896 591.009,98.186 C590.718,98.476 590.363,98.621 589.943,98.621 L577.943,98.621 C577.523,98.621 577.168,98.476 576.878,98.186 C576.588,97.896 576.443,97.541 576.443,97.121 L576.443,85.121 C576.443,84.701 576.588,84.346 576.878,84.056 C577.168,83.767 577.523,83.621 577.943,83.621 L589.943,83.621 C590.363,83.621 590.718,83.767 591.009,84.056 C591.298,84.346 591.443,84.701 591.443,85.121 C591.443,85.121 591.443,84.701 591.443,85.121 L591.443,85.121 L591.443,85.121 Z M591.443,103.121 L591.443,115.121 C591.443,115.541 591.298,115.896 591.009,116.186 C590.718,116.476 590.363,116.621 589.943,116.621 L577.943,116.621 C577.523,116.621 577.168,116.476 576.878,116.186 C576.588,115.896 576.443,115.541 576.443,115.121 L576.443,103.121 C576.443,102.701 576.588,102.346 576.878,102.056 C577.168,101.767 577.523,101.621 577.943,101.621 L589.943,101.621 C590.363,101.621 590.718,101.767 591.009,102.056 C591.298,102.346 591.443,102.701 591.443,103.121 C591.443,103.121 591.443,102.701 591.443,103.121 L591.443,103.121 L591.443,103.121 Z M609.443,85.121 L609.443,97.121 C609.443,97.541 609.298,97.896 609.009,98.186 C608.718,98.476 608.363,98.621 607.943,98.621 L595.943,98.621 C595.523,98.621 595.168,98.476 594.878,98.186 C594.588,97.896 594.443,97.541 594.443,97.121 L594.443,85.121 C594.443,84.701 594.588,84.346 594.878,84.056 C595.168,83.767 595.523,83.621 595.943,83.621 L607.943,83.621 C608.363,83.621 608.718,83.767 609.009,84.056 C609.298,84.346 609.443,84.701 609.443,85.121 C609.443,85.121 609.443,84.701 609.443,85.121 L609.443,85.121 L609.443,85.121 Z M609.443,103.121 L609.443,115.121 C609.443,115.541 609.298,115.896 609.009,116.186 C608.718,116.476 608.363,116.621 607.943,116.621 L595.943,116.621 C595.523,116.621 595.168,116.476 594.878,116.186 C594.588,115.896 594.443,115.541 594.443,115.121 L594.443,103.121 C594.443,102.701 594.588,102.346 594.878,102.056 C595.168,101.767 595.523,101.621 595.943,101.621 L607.943,101.621 C608.363,101.621 608.718,101.767 609.009,102.056 C609.298,102.346 609.443,102.701 609.443,103.121 L609.443,103.121 Z" id="Fill-16"></path>
            </g>
        </g>
    </g>
</svg>